# xmcd CD Database Entry
#
# Track frame offsets:
# 160
# 10137
# 18940
# 29650
# 37950
# 50530
# 59402
# 68700
# 81192
# 90907
# 101957
# 112270
# 123357
# 132390
#
# Disc length: 1895 seconds
#
# Revision: 1
# Processed by: cddbd v1.4PL0 Copyright (c) Steve Scherf et al.
# Submitted via: tcd 2.0b
#
DISCID=bb07650e
DTITLE=Buck Owens and his buckaroos - Before You Go - No One But You
DTITLE=
DYEAR=1900
DGENRE=
TTITLE0=Before You Go
TTITLE1=Gonna Have Love
TTITLE2=Getting Used To Loving You
TTITLE3=Steel Guitar Rag
TTITLE4=No Fool Like An Old Fool
TTITLE5=I Betcha Didn't Know
TTITLE6=(I Want) No One But You
TTITLE7=If You Want A Love
TTITLE8=Number One Heel
TTITLE9=Raz Ma-taz Polka 
TTITLE10=There's Gonna Come A Day
TTITLE11=Charile Brown
TTITLE12=Love's Gonna Live Here (instrumental version)
TTITLE13=Before You Go (instrumental version)
EXTD=
EXTT0=
EXTT1=
EXTT2=
EXTT3=
EXTT4=
EXTT5=
EXTT6=
EXTT7=
EXTT8=
EXTT9=
EXTT10=
EXTT11=
EXTT12=
EXTT13=
PLAYORDER=
